<?xml version="1.0" encoding="UTF-8"?>
<svg id="Layer_2" data-name="Layer 2" xmlns="http://www.w3.org/2000/svg" viewBox="0 0 95.49 117.72">
  <defs>
    <style>
      .cls-1 {
        font-family: Ravie, Ravie;
        font-size: 31.83px;
      }

      .cls-1, .cls-2 {
        fill: #fff;
      }

      .cls-2 {
        stroke-width: 0px;
      }
    </style>
  </defs>
  <g id="Layer_1-2" data-name="Layer 1">
    <g>
      <path class="cls-2" d="m40.9,28.37c.48-.08.99-.14,1.51-.21-.67.03-1.35.07-2.02.11-.06.07-.13.14-.19.2.23-.03.46-.07.7-.11Z"/>
      <path class="cls-2" d="m38.1,42.25c.03-1.18.08-2.3.12-3.36.1-2.93.23-5.38.33-7.09.03-.65.07-1.19.1-1.61-.95,1.08-1.84,2.17-2.67,3.25v11.76c.64-.96,1.36-1.94,2.13-2.94Z"/>
      <path class="cls-2" d="m38.89,31.8c.1,1.71.22,4.16.33,7.09.02.6.05,1.23.07,1.87,2.67-3.27,5.91-6.64,9.35-9.89.55-.52,1.1-1.04,1.63-1.57-.23-.02-.46-.04-.7-.06-.73-.05-1.47-.11-2.22-.14-.74-.04-1.49-.08-2.22-.09-.73-.02-1.46-.04-2.16-.03-.7,0-1.38,0-2.02.03-.46.02-.9.03-1.32.05-.29.32-.58.64-.86.96.03.44.07,1.04.11,1.76Z"/>
      <path class="cls-2" d="m54.15,47.58c1.92-2.03,3.7-4.04,5.34-5.99l-.62-11.17c-.09-.02-.2-.04-.34-.06-1.2,1.62-2.53,3.33-3.99,5.11l-.39,12.11Z"/>
      <path class="cls-2" d="m39.56,54.57c0,1.93.02,3.88.03,5.84,0,.74,0,1.47-.01,2.21.21-.26.43-.52.65-.77,0-.3.02-.61.02-.91.01-.88.05-1.74.08-2.55.03-.81.07-1.58.1-2.28.14-2.83.35-4.72.35-4.72,0,0,.2,1.89.35,4.72.04.71.08,1.47.1,2.28.03.71.06,1.45.07,2.21,2.22-2.51,4.71-5.04,7.32-7.5,1.47-1.39,2.88-2.78,4.23-4.18l-.36-11.03c-2.74,3.19-5.85,6.52-9.32,9.79-1.31,1.23-2.53,2.48-3.67,3.73.02,1.04.03,2.09.03,3.15Z"/>
      <path class="cls-2" d="m37.88,53.28c-.67.79-1.3,1.58-1.91,2.37v11.75c.58-.86,1.21-1.74,1.89-2.63,0-1.45-.01-2.9-.02-4.37.01-1.96.02-3.91.03-5.84,0-.43,0-.86,0-1.29Z"/>
      <path class="cls-2" d="m53.49,68.05l-.28-8.75c-2.9,3.43-6.24,7.05-10.01,10.6-.64.61-1.26,1.21-1.86,1.83,0,.1,0,.2,0,.29-.01.88-.05,1.74-.08,2.55-.03.81-.07,1.58-.1,2.28-.14,2.83-.35,4.72-.35,4.72,0,0-.2-1.89-.35-4.72-.04-.71-.08-1.47-.1-2.28-.02-.56-.04-1.15-.06-1.75-.28.3-.55.59-.82.89-.03,1.19-.06,2.36-.09,3.48-.04,1.68-.1,3.27-.15,4.74-.04,1.22-.09,2.36-.14,3.39,2.72-3.31,6.08-6.73,9.56-10.01,2.36-2.22,4.56-4.47,6.6-6.68l.27-12.14c-.55.69-1.13,1.39-1.72,2.1l-.3,9.46Z"/>
      <path class="cls-2" d="m55.66,56.29l.26,11.58c1.23-1.36,2.41-2.7,3.51-4.01l.34-10.52v.45s.01-2.94.01-2.94c-1.22,1.7-2.6,3.53-4.13,5.45Z"/>
      <path class="cls-2" d="m38.22,81.92c-.06-1.47-.11-3.06-.15-4.74-.02-.6-.03-1.22-.05-1.85-.72.84-1.39,1.68-2.04,2.52v11.62c.71-1.08,1.53-2.19,2.42-3.31-.06-1.25-.12-2.68-.18-4.25Z"/>
      <path class="cls-2" d="m43.49,91.82c.18,0,.35,0,.53,0,.36-.01.72-.03,1.09-.04.73-.02,1.48-.07,2.22-.12.74-.04,1.49-.12,2.22-.18.73-.07,1.45-.15,2.14-.23.69-.09,1.36-.17,1.99-.27.37-.05.71-.11,1.05-.16l.26-11.47c-3.21,3.97-7.06,8.27-11.5,12.49Z"/>
      <path class="cls-2" d="m56.41,89.55c.79-.87,1.54-1.74,2.28-2.6l.42-12.95c-.91,1.24-1.89,2.54-2.96,3.9l.26,11.66Z"/>
      <path class="cls-2" d="m66.51,16.28c-.36-3.92-2.27-7.81-5.39-10.84-3.61-3.51-8.29-5.44-13.2-5.44h-.08c-4.9,0-9.59,1.93-13.2,5.44-3.12,3.03-5.04,6.92-5.39,10.84-.96.47-1.64,1.47-1.64,2.57v1.95c0,.92.48,1.71,1.21,2.14v.76c0,.67.25,1.29.71,1.74.25.25.54.43.86.55v.58c0,1.18.8,2.14,1.9,2.36v62.82c-1.1.22-1.9,1.18-1.9,2.36v.58c-.32.12-.61.3-.86.55-.46.46-.71,1.08-.71,1.74v.75c-.18.1-.34.23-.49.38-.46.46-.72,1.08-.72,1.76v1.95c0,1.07.64,2.05,1.56,2.53.32,4.16,2.23,7.56,5.58,9.9,3.25,2.27,7.77,3.47,13.05,3.47h.16c5.28,0,9.79-1.2,13.05-3.47,3.35-2.34,5.26-5.74,5.58-9.9.92-.48,1.56-1.46,1.56-2.53v-1.95c0-.67-.25-1.3-.72-1.76-.15-.15-.31-.28-.49-.38v-.75c0-1.06-.64-1.95-1.57-2.29v-.58c0-1.18-.8-2.14-1.9-2.36V28.92c1.1-.22,1.9-1.18,1.9-2.36v-.58c.92-.34,1.57-1.23,1.57-2.29v-.75c.18-.1.34-.23.49-.38.46-.46.72-1.08.72-1.76v-1.95c0-1.1-.68-2.1-1.64-2.57Zm-32.82,95.36c-.19-.16-.33-.36-.48-.54-.15-.18-.3-.36-.44-.53-.25-.37-.48-.73-.7-1.06-.18-.35-.34-.69-.5-.99-.15-.31-.23-.61-.34-.88-.05-.13-.09-.26-.14-.38-.04-.12-.06-.24-.09-.34-.02-.08-.03-.14-.05-.21-.18-.64-.31-1.31-.39-2.02,5.72.82,11.54,1.24,17.31,1.24s11.59-.42,17.31-1.24c-.04.41-.11.8-.19,1.18-.03,0-.05.01-.08.02-.23.05-.57.12-1.01.2-.88.17-2.15.4-3.68.61-.76.12-1.6.22-2.48.33-.88.11-1.81.2-2.78.3-.97.07-1.96.18-2.98.23-1.02.06-2.05.12-3.08.14-.52.01-1.03.03-1.55.04-.52,0-1.03,0-1.54,0-1.02.01-2.02-.02-2.99-.05-.97-.02-1.91-.08-2.8-.14-.44-.03-.88-.06-1.3-.08-.42-.04-.82-.08-1.21-.12-.77-.08-1.48-.15-2.11-.23-.63-.09-1.17-.17-1.62-.24-.9-.13-1.41-.21-1.41-.21,0,0,.51.1,1.4.28.45.09.99.2,1.61.33.62.11,1.33.21,2.1.34.39.06.79.13,1.2.19.42.05.85.1,1.3.15.89.11,1.83.22,2.8.29.97.08,1.98.17,3.01.21.51.03,1.03.05,1.55.08.52.01,1.04.03,1.56.04,1.04.03,2.09.03,3.12.02,1.03,0,2.04-.05,3.02-.07.02,0,.03,0,.05,0-2.41.59-6.22,1.25-10.84,1.16-6.19-.12-9.32,1.05-8.1,3.3.09.05.18.11.27.16.12.07.23.14.35.21.12.06.25.12.38.18.25.12.51.24.76.37.27.1.53.21.81.32.14.05.27.11.41.16.14.05.28.09.42.13.28.09.57.18.86.27.29.08.59.14.89.22.59.16,1.21.24,1.82.36.31.05.62.08.93.12.31.03.63.09.94.1.63.04,1.25.1,1.9.1l.96.02.95-.02c.63,0,1.26-.06,1.89-.09,1.24-.13,2.47-.27,3.63-.55,1.16-.27,2.27-.59,3.27-1.03.51-.19.97-.45,1.44-.67.23-.11.44-.25.65-.38.21-.13.43-.24.61-.39.39-.28.76-.53,1.08-.83.17-.14.33-.28.48-.41.14-.15.28-.29.42-.43.13-.14.27-.27.39-.41.11-.14.22-.28.33-.41.1-.13.2-.26.3-.38.08-.13.16-.25.24-.37.15-.24.3-.44.4-.63.1-.19.19-.36.25-.49.14-.27.21-.41.21-.41,0,0-.06.15-.18.43-.06.14-.13.31-.21.51-.08.2-.22.42-.36.67-.07.12-.14.25-.22.39-.09.13-.18.26-.28.4-.1.14-.2.29-.31.44-.1.15-.24.29-.37.44-.13.15-.26.31-.4.47-.15.15-.31.3-.47.45-.31.32-.69.6-1.08.9-.19.16-.4.29-.62.43-.22.14-.43.29-.66.42-.46.25-.94.53-1.46.74-1.02.48-2.15.85-3.33,1.14-.3.07-.6.14-.9.21-.31.06-.61.11-.92.17l-.47.08-.47.06c-.32.04-.63.07-.95.11-.64.04-1.28.11-1.93.11l-.97.02-.97-.02c-.64,0-1.3-.07-1.95-.12-.33-.02-.65-.07-.97-.11-.32-.05-.64-.08-.96-.13-.63-.13-1.26-.22-1.87-.39-.3-.08-.61-.15-.91-.24-.3-.1-.59-.2-.88-.29-.14-.05-.29-.09-.43-.15-.14-.06-.28-.12-.42-.17-.28-.12-.55-.23-.82-.35-.26-.14-.52-.27-.78-.4-.13-.07-.25-.13-.38-.2-.12-.08-.24-.15-.36-.23-.24-.15-.47-.3-.7-.45-.22-.16-.43-.33-.64-.49-.43-.31-.78-.69-1.14-1.03Zm-4.68-9.83v-1.95c0-.62.46-1.07,1.05-1.07.05,0,.1,0,.15,0v-1.83c0-.61.45-1.04,1.03-1.04.05,0,.11,0,.17.01.12.02.24.03.37.05v-1.89c0-.59.44-1.01,1-1.01.05,0,.1,0,.14,0,4.96.62,9.96.93,14.95.93,2.95,0,5.91-.11,8.85-.33l-4.65.57c.38.73.49,1.47.52,1.99-.25.02-.5.05-.75.07-1,.07-2.02.16-3.04.2-1.02.06-2.04.09-3.05.12-1.01.03-2,.02-2.96.03-.96-.02-1.89-.03-2.76-.07-.88-.05-1.71-.08-2.48-.13-.77-.06-1.47-.12-2.09-.17-.62-.05-1.16-.12-1.61-.17-.89-.1-1.4-.16-1.4-.16,0,0,.51.08,1.39.23.44.07.98.17,1.6.25.62.08,1.32.17,2.08.27.76.09,1.6.16,2.48.25.88.08,1.81.14,2.77.21.96.04,1.96.1,2.97.12,1.01.02,2.04.05,3.07.04,1.03,0,2.06-.03,3.07-.05,1.01-.04,2.01-.07,2.98-.14.48-.03.96-.06,1.42-.09.46-.04.92-.08,1.36-.11.88-.07,1.72-.16,2.49-.25.46-.05.9-.1,1.31-.16-4.53.68-8.55.79-8.55.79.37.71.5,1.42.53,1.95-.47.03-.94.07-1.42.09-.54.03-1.09.06-1.65.1-.55.02-1.11.04-1.66.06-1.11.05-2.22.06-3.31.07-1.09.03-2.17,0-3.21-.02-1.04,0-2.05-.06-3-.1-.48-.02-.94-.04-1.39-.06-.45-.03-.88-.07-1.3-.1-.83-.06-1.59-.11-2.27-.18-.67-.07-1.26-.14-1.74-.19-.97-.1-1.52-.17-1.52-.17,0,0,.55.09,1.51.24.48.08,1.07.17,1.74.27.67.1,1.43.18,2.26.28.41.05.85.1,1.3.16.45.04.91.08,1.39.13.95.08,1.96.19,3,.24,1.04.06,2.12.14,3.22.17,1.1.04,2.21.08,3.33.09.56,0,1.12.01,1.67.02.56,0,1.11-.01,1.66-.02,1.1,0,2.18-.05,3.23-.08,1.05-.04,2.06-.1,3.02-.15.96-.07,1.87-.12,2.7-.2,1.67-.13,3.07-.3,4.04-.41.05,0,.1-.01.15-.02-5.41.94-11.49,1.25-11.49,1.25.93,1.41.73,2.96.6,3.6-2.15.11-4.29.17-6.44.17-5.89,0-11.79-.43-17.63-1.3-.68-.1-1.24-.75-1.24-1.43Zm2.77-75.25v-1.89c-.12.02-.24.03-.37.05-.06,0-.11.01-.17.01-.58,0-1.03-.44-1.03-1.04v-1.83c-.05,0-.1,0-.15,0-.6,0-1.05-.44-1.05-1.07v-1.95c0-.69.55-1.33,1.24-1.43,5.85-.86,11.74-1.3,17.63-1.3,4.91,0,9.82.3,14.7.9-3.61-.3-8.34-.47-8.34-.47,0,0,.37,1.45-.51,3.11-.54-.03-1.09-.06-1.64-.07-.55-.02-1.11-.03-1.67-.05-.56,0-1.12,0-1.68,0-1.12-.01-2.24.04-3.35.08-1.1.02-2.18.13-3.23.2-1.05.06-2.06.2-3.01.3-.48.06-.94.11-1.39.16-.45.07-.88.14-1.29.21-.83.14-1.59.24-2.26.37-.67.14-1.25.26-1.73.36-.96.2-1.5.31-1.5.31,0,0,.55-.09,1.52-.25.48-.08,1.07-.18,1.74-.29.67-.1,1.44-.18,2.27-.28.42-.05.85-.1,1.3-.16.45-.03.91-.07,1.39-.11.96-.07,1.96-.17,3.01-.19,1.04-.03,2.12-.09,3.22-.07,1.1,0,2.21,0,3.32.05.56.02,1.11.04,1.67.06.55.04,1.1.08,1.65.11,1.09.06,2.16.19,3.2.28,1.04.11,2.03.24,2.98.37.46.07.9.14,1.33.2-3.01-.25-6.12-.44-6.12-.44,0,0,.14,1.02-.26,2.18-.47-.02-.94-.05-1.42-.07-1.01-.03-2.04-.06-3.07-.05-1.03-.01-2.06.03-3.07.06-1.01.03-2.01.11-2.97.17-.96.09-1.89.16-2.77.26-.88.11-1.71.21-2.47.32-.76.12-1.46.24-2.07.34-.62.1-1.15.22-1.59.31-.88.18-1.38.28-1.38.28,0,0,.51-.08,1.39-.22.44-.06.98-.17,1.6-.24.62-.07,1.32-.16,2.08-.25.76-.08,1.59-.14,2.47-.21.88-.06,1.8-.09,2.76-.15.96-.01,1.95-.05,2.95-.04,1.01.01,2.03.02,3.05.07,1.02.03,2.04.11,3.04.18.5.03,1,.09,1.49.13.49.04.97.09,1.45.15.47.06.94.11,1.4.17.45.07.9.13,1.33.19.79.12,1.53.24,2.23.37-3.18-.28-7.02-.52-7.02-.52,0,0,.16,1.19-.38,2.43-1.44-.05-2.88-.08-4.32-.08-4.99,0-9.99.31-14.95.93-.05,0-.1,0-.14,0-.56,0-1-.42-1-1.01ZM47.84,1.3h.08c6.35,0,11.88,3.53,14.9,8.29-5.6-7.14-14.95-7.5-14.95-7.5,6.04,2.04,8.88,3.6.93,5.02-2.85.51-2.55,2.42-1.9,3.82.37.03.74.05,1.11.09.86.08,1.72.14,2.56.24.84.1,1.67.18,2.47.28.8.1,1.57.2,2.31.3.73.11,1.42.21,2.06.31,1.28.18,2.33.38,3.07.51.74.13,1.16.2,1.16.2,0,0-.43-.04-1.17-.11-.75-.06-1.81-.19-3.1-.27-.64-.05-1.34-.1-2.07-.15-.74-.04-1.51-.08-2.31-.12-.8-.04-1.63-.06-2.47-.09-.84-.03-1.7-.03-2.55-.04-.45,0-.89,0-1.34,0-.28.01-.57.03-.85.04-1.03.03-2.03.12-3.01.2-.97.06-1.91.17-2.8.28-.44.05-.88.1-1.3.15-.42.06-.82.12-1.21.18-.77.12-1.48.22-2.1.33-.62.12-1.16.23-1.61.32-.89.18-1.4.28-1.4.28,0,0,.51-.08,1.41-.22.45-.07.99-.15,1.62-.25.63-.08,1.34-.15,2.11-.24.39-.04.79-.09,1.21-.13.42-.03.85-.06,1.3-.09.89-.07,1.83-.14,2.8-.16.97-.04,1.97-.08,3-.07.51,0,1.02,0,1.54,0,.52.01,1.03.02,1.55.04,1.04.02,2.07.07,3.09.13,1.02.04,2.02.14,2.98.21.97.09,1.9.18,2.78.28.88.11,1.72.2,2.48.32,1.54.21,2.81.43,3.69.59.41.08.73.14.96.19.12.51.22,1.03.28,1.55-5.71-.82-11.52-1.23-17.29-1.23s-11.58.42-17.29,1.23c.94-7.62,8.27-14.66,17.25-14.66Zm13.18,90.61l-1.23-38.12v-.45s-.36,10.52-.36,10.52l-.33,10.14-.42,12.95-.1,3.14c-.14.03-.3.07-.5.11-.63.13-1.54.31-2.63.49-.23.04-.47.08-.72.12-.34.05-.69.11-1.05.16-.63.1-1.3.18-1.99.27-.69.08-1.41.16-2.14.23-.73.06-1.47.14-2.22.18-.74.05-1.49.1-2.22.12-.37.01-.73.03-1.09.04-.18,0-.36,0-.53,0-.18,0-.36,0-.53,0-.35,0-.7,0-1.03,0-.34,0-.67-.02-.99-.03-.64-.02-1.25-.03-1.81-.07-.56-.04-1.08-.07-1.53-.1-.45-.05-.85-.09-1.18-.13-.65-.07-1.03-.11-1.03-.11,0,0,.37.09,1.01.23.32.07.71.17,1.16.27.45.08.96.18,1.52.28.46.09.95.16,1.47.24-2-.12-3.99-.3-5.97-.52V28.78c1.93-.22,3.87-.39,5.82-.51.67-.04,1.35-.08,2.02-.11-.52.06-1.03.13-1.51.21-.24.04-.47.07-.7.11-.38.06-.76.12-1.1.19-.56.1-1.06.2-1.52.28-.45.1-.84.19-1.16.26-.64.14-1.01.23-1.01.23,0,0,.37-.04,1.03-.11.33-.03.72-.07,1.18-.12.46-.03.97-.06,1.53-.1.16-.01.33-.02.49-.03.42-.02.86-.03,1.32-.05.64-.03,1.32-.03,2.02-.03.7,0,1.42,0,2.16.03.73.01,1.48.05,2.22.09.74.03,1.49.1,2.22.14.24.02.47.04.7.06.49.04.97.09,1.44.13.69.08,1.36.14,2,.22.63.07,1.23.15,1.78.23,1.1.15,2.02.3,2.65.41.14.03.27.05.38.07.13.02.24.04.34.06l.62,11.17.29,5.26,1.01-18.12c.13.01.27.03.4.05v63.11c-.06,0-.11.01-.17.02Z"/>
      <path class="cls-2" d="m33.75,100.52c.67.13,1.45.27,2.29.38.84.12,1.74.21,2.64.28.45.03.9.06,1.35.08.44.03.88.03,1.31.04.85.01,1.64.01,2.32-.02.68-.01,1.24-.07,1.64-.1.39-.03.62-.05.62-.05,0,0-.23-.02-.62-.05-.39-.03-.96-.06-1.63-.1-.67-.04-1.46-.09-2.3-.14-.84-.06-1.74-.13-2.63-.19-.45-.04-.9-.06-1.34-.11-.44-.04-.88-.08-1.29-.11-.84-.08-1.62-.15-2.3-.22-.67-.07-1.23-.12-1.63-.17-.39-.04-.62-.07-.62-.07,0,0,.22.07.6.17.39.09.93.24,1.6.37Z"/>
      <path class="cls-2" d="m34.3,96.83c-.35-.03-.55-.06-.55-.06,0,0,.19.06.54.15.34.08.84.2,1.44.31.6.11,1.3.23,2.05.32.75.1,1.56.17,2.37.24.4.02.81.05,1.21.07.4.02.79.02,1.17.03.76,0,1.47,0,2.07-.02.61-.02,1.11-.07,1.47-.09.35-.03.55-.05.55-.05,0,0-.2-.02-.56-.04-.35-.02-.86-.05-1.46-.09-.6-.04-1.31-.08-2.06-.12-.75-.05-1.56-.1-2.36-.16-1.61-.11-3.21-.24-4.41-.35-.6-.06-1.11-.1-1.46-.13Z"/>
      <path class="cls-2" d="m42.07,18.96c-.51,0-1.11,0-1.74.03-.64.03-1.32.08-1.99.14-.68.08-1.35.17-1.98.26-.63.1-1.21.22-1.71.32-.5.1-.91.22-1.2.29-.29.08-.45.13-.45.13,0,0,.17-.02.46-.06.29-.04.72-.1,1.22-.16.5-.08,1.09-.13,1.72-.22.63-.08,1.3-.15,1.97-.21.67-.07,1.34-.14,1.98-.19.63-.04,1.22-.11,1.73-.13.51-.04.93-.07,1.23-.09.3-.02.47-.04.47-.04,0,0-.17-.01-.47-.03-.3-.01-.72-.04-1.23-.04Z"/>
      <path class="cls-2" d="m36.23,23.27c.45-.07.97-.11,1.53-.19.56-.07,1.15-.13,1.75-.19.6-.07,1.19-.12,1.75-.16.56-.04,1.08-.09,1.53-.12.45-.03.83-.06,1.09-.08.26-.02.41-.03.41-.03,0,0-.15-.01-.41-.03-.26-.01-.64-.05-1.09-.05-.45,0-.98-.01-1.55.01-.57.03-1.17.07-1.77.12-.6.07-1.2.15-1.76.23-.56.09-1.08.2-1.52.29-.44.09-.81.2-1.06.27-.25.07-.4.12-.4.12,0,0,.15-.02.41-.05.26-.03.63-.08,1.08-.14Z"/>
      <path class="cls-2" d="m38.44,26.4c.5-.05,1.03-.1,1.56-.14.53-.05,1.06-.09,1.56-.12.5-.02.96-.07,1.36-.09.4-.02.73-.04.97-.06.23-.02.37-.03.37-.03,0,0-.13-.01-.37-.04-.23-.02-.57-.06-.97-.07-.4-.01-.87-.03-1.37-.02-.5.01-1.04.04-1.57.07-.53.05-1.07.12-1.56.18-.5.07-.96.17-1.35.24-.39.08-.72.17-.94.23-.23.06-.35.1-.35.1,0,0,.13-.01.37-.03.23-.02.57-.06.96-.1.4-.05.86-.08,1.36-.14Z"/>
      <path class="cls-2" d="m34.36,11.88s.16-.03.44-.07c.28-.05.68-.11,1.16-.19.48-.08,1.05-.15,1.65-.23.6-.08,1.25-.15,1.89-.21.64-.07,1.29-.11,1.9-.15.61-.02,1.17-.07,1.66-.07.49-.01.89-.03,1.18-.03.29,0,.45-.01.45-.01,0,0-.16-.02-.45-.06-.28-.03-.69-.08-1.18-.1-.49-.02-1.06-.05-1.67-.03-.61.02-1.27.05-1.92.1-.65.07-1.3.16-1.9.25-.61.1-1.16.23-1.64.34-.48.11-.87.23-1.14.31-.27.09-.43.14-.43.14Z"/>
      <path class="cls-2" d="m39.91,94.67c.5.03,1.04.07,1.57.1.54.02,1.07.04,1.58.06.5.02.97.01,1.38.02.4,0,.74-.01.98-.02.24,0,.37-.02.37-.02,0,0-.13-.02-.37-.05-.23-.03-.57-.08-.97-.11-.4-.03-.87-.09-1.37-.12-.5-.03-1.04-.07-1.57-.1-.54-.02-1.07-.04-1.58-.06-.5-.02-.97-.01-1.38-.02-.4,0-.74.01-.98.01-.24,0-.37.01-.37.01,0,0,.13.02.37.05.23.03.57.08.97.11.4.04.87.09,1.37.12Z"/>
    </g>
    <g>
      <path class="cls-2" d="m65.43,73.75c-.73-.01-1.48-.09-1.91-.15-.28-2.37-2.59-4.55-5.73-5.14-2.05-.39-4.08-.04-5.58.95,0,0-.01,0-.02.01,0,0,0,0-.01,0h0c-2.36,1.59-3.6.99-4.92.36-.82-.4-1.67-.81-2.78-.68-2.51.29-3.1.06-4.55-.48-.12-.05-.25-.1-.39-.15-1.17-.44-4.36-1.64-8.44-3.19-2.92-5.24-6.84-12.24-8.89-15.74-.33-.56-.65-1.11-.96-1.64-3.7-6.34-5.69-9.62-7.03-9.12-.04.01-.07.03-.1.06-.02.02-.05.05-.06.09-.03.07-.03.15,0,.21.1.21,6.44,13.56,11.39,24C14.24,58.9.61,53.72.4,53.64c-.07-.03-.14-.02-.21,0-.03.01-.05.03-.08.05-.03.03-.05.06-.06.1-.52,1.51,3.07,3.34,10,6.72.59.29,1.19.58,1.8.88,3.8,1.87,10.98,5.14,16.36,7.56,1.38,2.91,2.43,5.13,2.85,6.03,1.82,3.88,3.56,8.34,1.24,12.03-.06.1-.11.2-.16.29-.71,1.39-.95,3.11-.68,4.85s1.04,3.3,2.15,4.4c1.19,1.18,2.62,1.7,4.05,1.48.85-.14,1.65-.55,2.31-1.19l.05-.05c1.44-1.44,2.1-3.84,1.71-6.26,0,0,0,0,0,0-.28-1.79-1.08-3.37-2.25-4.48-.02-.03-.04-.06-.07-.08-2.22-1.83-4.39-3.95-4.48-7.96-.1-4.13-.13-5.99-.13-6.01,0-.04-.01-.07-.03-.1.19.09.3.13.32.14.04.02.08.03.13.02.02,0,2.42-.18,6.91-.51,4.14-.3,7.26,2.51,9.25,4.66.01.02.03.04.05.06.04.05.07.09.12.13.02.03.05.05.07.07.01.01.03.03.04.04l.03.03.07.07s.05.04.07.06c1.05.99,2.49,1.7,4.05,2,1.73.33,3.45.14,4.87-.53.58-.28,1.09-.62,1.5-1.03l.05-.05c.57-.57.96-1.25,1.15-1.99.42-.04,1.22-.11,1.99-.1,1.11.02,1.56.26,1.78.27.22,0,.3-.18.31-.85,0-.68-.07-.86-.28-.86-.22,0-.68.23-1.79.21Zm-28.34,22.92c-.08.01-.2.03-.35.03-.3,0-.74-.05-1.22-.27-.24-.11-.48-.26-.72-.44-.12-.09-.23-.19-.35-.3-.11-.1-.22-.22-.33-.35-.43-.5-.78-1.11-1.03-1.76-.12-.33-.22-.66-.29-.99-.04-.17-.07-.33-.09-.5-.02-.16-.04-.33-.05-.49-.05-.65,0-1.26.1-1.76.1-.51.26-.91.38-1.19.06-.14.12-.24.16-.31.04-.07.06-.11.06-.11,0,0-.07.16-.17.44-.05.14-.1.31-.15.51-.05.2-.09.43-.13.68-.14,1-.05,2.38.43,3.63.23.63.57,1.21.96,1.7.1.12.2.23.31.35.1.1.21.21.32.3.22.19.44.34.66.46.44.24.86.34,1.15.35.15.01.26.01.34,0,.08,0,.12,0,.12,0,0,0-.04,0-.12.02Zm2.79-5.84s0,0,0,0c.29,1.83-.17,3.65-1.16,4.64-.4.4-.86.64-1.36.72-.82.13-1.69-.21-2.44-.96-.83-.82-1.4-2.02-1.62-3.37-.21-1.35-.04-2.66.49-3.7.19-.37.42-.69.67-.95l.03-.03c.39-.38.84-.61,1.32-.69,1.81-.29,3.64,1.65,4.06,4.33Zm-14.42-29.12c-.32-.63-.8-1.52-1.35-2.6-.54-1.08-1.2-2.34-1.87-3.7-.67-1.36-1.39-2.81-2.1-4.26-.7-1.46-1.4-2.92-2.05-4.28-.66-1.37-1.24-2.66-1.76-3.75-.51-1.1-.92-2.02-1.22-2.67-.29-.65-.45-1.02-.45-1.02,0,0,.19.36.52.98.32.63.8,1.52,1.35,2.6.54,1.08,1.2,2.34,1.87,3.7.67,1.36,1.39,2.81,2.1,4.26.7,1.46,1.4,2.92,2.05,4.28.66,1.37,1.24,2.66,1.76,3.75.51,1.1.92,2.02,1.21,2.67.29.65.45,1.02.45,1.02,0,0-.19-.36-.52-.98Zm-2.76,4.2c-1.08-.47-2.34-.97-3.67-1.58-1.33-.6-2.74-1.25-4.15-1.91-1.4-.69-2.79-1.37-4.1-2.01-1.31-.65-2.51-1.29-3.54-1.83-1.04-.54-1.88-1.01-2.48-1.33-.59-.33-.93-.52-.93-.52,0,0,.36.16.98.43.62.28,1.51.67,2.57,1.16,1.06.49,2.3,1.05,3.61,1.68,1.32.62,2.72,1.29,4.13,1.95,1.4.68,2.8,1.35,4.12,1.97,1.32.62,2.54,1.22,3.59,1.72.26.11.51.19.76.21.24.02.46-.05.67-.15.4-.21.64-.56.79-.85.15-.3.22-.56.27-.73.04-.18.05-.27.05-.27,0,0,0,.1-.03.28-.03.18-.07.45-.2.77-.14.31-.35.71-.78.98-.21.13-.48.24-.77.23-.29,0-.58-.08-.86-.18Zm11.88,12.46c-.05,0-.13,0-.22.01-.09,0-.19.01-.29.01-.1,0-.21.01-.32.02-.22.02-.43.05-.6.07-.17.03-.29.05-.29.05,0,0,.06-.12.22-.22.08-.05.18-.11.29-.15.11-.04.24-.06.36-.08.13,0,.25,0,.37.02.11.02.22.05.3.09.17.07.27.15.27.15,0,0-.03,0-.09.01Zm-.27-4.86c0,.12.02.27.01.44,0,.17-.01.37-.07.57-.03.11-.06.21-.15.32-.04.06-.07.08-.13.13-.05.04-.1.07-.15.1-.21.13-.45.23-.72.29-.26.06-.55.09-.84,0-.14-.05-.28-.13-.39-.26l-.06-.08-.02-.02s-.01-.02-.02-.03l-.02-.05-.1-.18c-.26-.49-.52-.98-.76-1.44-.24-.46-.45-.9-.64-1.26-.19-.37-.33-.69-.44-.9-.1-.22-.16-.35-.16-.35,0,0,.07.12.2.32.12.21.31.5.51.86.21.36.45.78.7,1.23.25.45.52.94.79,1.42l.1.18.02.05s.01.03,0,.01v.02s.07.09.07.09c.07.08.17.15.28.19.23.07.49.06.74,0,.24-.06.48-.13.68-.24.11-.05.19-.11.26-.19.06-.07.1-.17.13-.26.06-.19.09-.38.11-.54.02-.17.02-.31.03-.43,0-.24,0-.38,0-.38,0,0,.03.14.04.38Zm-.09-2.26c-.26-.1-.63-.24-1.07-.43-.44-.18-.95-.39-1.5-.63-.55-.23-1.12-.49-1.7-.75-.58-.26-1.15-.52-1.69-.78-.54-.25-1.03-.5-1.46-.7-.43-.21-.78-.39-1.03-.52-.25-.13-.39-.2-.39-.2,0,0,.15.06.41.16.26.1.63.24,1.07.43.44.18.95.39,1.5.63.55.23,1.13.49,1.7.75.58.26,1.15.52,1.69.78.54.25,1.03.5,1.46.7s.78.39,1.03.52c.25.13.39.2.39.2,0,0-.15-.06-.41-.16Zm-4.63-5.38c-.3.04-.5.18-.62.28-.06.06-.1.1-.12.14-.03.03-.04.05-.04.05,0,0,.02-.01.06-.03.03-.02.09-.05.16-.08.14-.06.35-.11.58-.09.23.02.49.12.68.32.02.02.05.05.07.07.02.03.06.07.07.09.03.05.07.11.09.18.05.13.08.27.08.41,0,.14-.03.28-.09.41-.06.13-.13.24-.24.34-.09.09-.21.16-.33.21-.12.05-.24.07-.36.08-.23.02-.44-.04-.58-.1-.07-.03-.12-.06-.16-.08-.04-.02-.06-.03-.06-.03,0,0,.01.02.04.05.02.04.06.08.12.14.11.11.32.25.61.3.1.02.21.02.33.01-.43.08-.89-.05-1.22-.39-.52-.54-.51-1.4.03-1.93.34-.33.81-.45,1.24-.35-.12-.02-.23-.02-.34,0Zm6.96,2.06c-.31-.1-.75-.24-1.28-.43-.52-.19-1.14-.39-1.79-.63-.65-.24-1.35-.5-2.04-.76-.69-.27-1.39-.53-2.03-.79-.65-.25-1.25-.5-1.76-.71-.52-.21-.94-.4-1.24-.52-.3-.13-.47-.2-.47-.2,0,0,.18.06.49.16.31.1.75.24,1.28.43.52.19,1.14.39,1.79.63.65.24,1.35.5,2.04.76.69.27,1.39.53,2.03.79.65.25,1.25.51,1.76.71.52.21.94.4,1.24.52.3.13.47.2.47.2,0,0-.18-.06-.49-.16Zm10.59,2.62c-.38-.17-.75-.36-1.14-.48-.1-.04-.19-.06-.29-.09-.1-.02-.2-.05-.3-.07-.2-.02-.4-.06-.6-.04h-.3c-.1.02-.2.03-.31.04-.2.02-.4.03-.6.05-.79.06-1.55.03-2.18-.12-.63-.14-1.11-.37-1.45-.51-.34-.15-.53-.23-.53-.23,0,0,.2.07.55.18.35.12.85.29,1.46.41.31.06.64.08,1,.09.36,0,.74-.03,1.13-.05.2-.02.39-.03.6-.06.1-.01.2-.02.3-.03l.32-.02c.22-.02.43.02.65.04.11.01.21.05.32.07.11.02.21.05.31.09.41.13.79.33,1.17.51.37.18.74.35,1.1.47.18.06.37.1.55.14.09.01.18.02.27.04l.13.02s.09,0,.13,0c.35.01.69-.05.99-.12.3-.09.57-.17.8-.28.12-.05.23-.1.33-.14.1-.05.19-.1.27-.15.32-.18.51-.28.51-.28,0,0-.17.12-.48.33-.08.05-.16.11-.26.16-.1.05-.21.11-.32.17-.12.06-.23.14-.37.18-.14.05-.28.1-.43.16-.31.08-.65.16-1.03.16-.05,0-.09,0-.14,0h-.14c-.1-.02-.19-.03-.29-.04-.19-.03-.39-.08-.58-.14-.39-.12-.76-.29-1.14-.47Zm14.16,5.71c-.21.21-.45.39-.7.54-.26.16-.52.28-.8.39-.28.1-.56.19-.85.24s-.58.09-.88.11c-.29.02-.59.01-.88,0-.29-.02-.58-.06-.86-.12h-.01c-.33-.07-.65-.16-.97-.27-.32-.11-.62-.25-.92-.41-.15-.08-.29-.16-.43-.25-.14-.09-.27-.19-.41-.29-.13-.1-.26-.21-.38-.33-.12-.11-.23-.24-.34-.36.24.23.5.43.77.61.27.18.56.34.85.48.3.14.6.26.91.35.31.09.63.17.95.23h0c.28.05.56.08.85.1.28.02.57.02.85,0,.57-.03,1.13-.13,1.66-.31.26-.09.53-.21.78-.34.25-.14.49-.29.7-.48.21-.19.4-.4.56-.64.15-.24.27-.51.34-.79-.07.58-.37,1.12-.79,1.54Zm.35-1.78c-.09.47-.32.9-.69,1.27-.28.28-.62.52-1.03.71-1.06.5-2.38.64-3.72.39,0,0,0,0,0,0-1.34-.25-2.52-.86-3.31-1.71-.73-.77-1.04-1.65-.89-2.47.09-.47.32-.9.7-1.28l.03-.03c1.02-.99,2.87-1.4,4.71-1.05,2.66.5,4.55,2.38,4.21,4.19Zm4.97-.44c-.15.05-.34.11-.54.15-.11.02-.2.04-.32.05-.11.01-.22.01-.33,0-.44-.02-.87-.1-1.18-.18-.31-.08-.52-.17-.52-.17,0,0,.22,0,.54.02.16,0,.35.02.55.03.2.01.41.03.62.03.1,0,.21,0,.31,0,.09,0,.21-.02.3-.02.2-.02.38-.05.54-.07.32-.04.53-.07.53-.07,0,0-.19.11-.5.22Z"/>
      <path class="cls-2" d="m28.88,67.8c.35.36.93.37,1.3.02.36-.35.37-.93.02-1.3s-.33.25-.69.61c-.36.35-.98.31-.63.67Z"/>
      <path class="cls-2" d="m28.72,66.77c-.04.06-.05.13-.07.19-.02.06,0,.11,0,.14,0,.03,0,.05,0,.05,0,0,.01-.01.04-.04.02-.03.06-.06.09-.09.03-.04.08-.08.12-.12.04-.05.08-.09.13-.13.04-.05.09-.09.13-.13.05-.04.08-.09.12-.12.04-.03.07-.07.09-.09.02-.02.04-.04.04-.04,0,0-.02,0-.05,0-.03,0-.08,0-.14,0-.06.01-.12.03-.19.07-.06.04-.12.08-.18.13-.05.06-.1.12-.13.18Z"/>
    </g>
    <text class="cls-1" transform="translate(69.61 47.75)"><tspan x="0" y="0">B</tspan><tspan x="0" y="26.93">B</tspan><tspan x="0" y="53.86">S</tspan></text>
  </g>
</svg>